Coordinates
version=1
nRows=8
nColumns=40
inDegrees=yes

Units are S.I. units (second, meters, Newtons, ...)
If the header above contains a line with 'inDegrees', this indicates whether rotational values are in degrees (yes) or radians (no).

endheader
time	pelvis_tilt	pelvis_list	pelvis_rotation	pelvis_tx	pelvis_ty	pelvis_tz	hip_flexion_r	hip_adduction_r	hip_rotation_r	knee_angle_r	knee_angle_r_beta	ankle_angle_r	subtalar_angle_r	mtp_angle_r	hip_flexion_l	hip_adduction_l	hip_rotation_l	knee_angle_l	knee_angle_l_beta	ankle_angle_l	subtalar_angle_l	mtp_angle_l	lumbar_extension	lumbar_bending	lumbar_rotation	arm_flex_r	arm_add_r	arm_rot_r	elbow_flex_r	pro_sup_r	wrist_flex_r	wrist_dev_r	arm_flex_l	arm_add_l	arm_rot_l	elbow_flex_l	pro_sup_l	wrist_flex_l	wrist_dev_l
      0.57000000	     11.90062437	      5.15031120	     -2.36276555	      0.40658374	      0.94917760	     -0.24488871	     11.86957238	     -4.75810957	      0.67704644	      4.83177187	      0.08433033	      1.57519566	      0.00000000	      0.00000000	    -28.51184860	      8.60298014	     -3.73055218	      7.34545889	      0.12820244	     15.32582487	      0.00000000	      0.00000000	    -27.73456512	     -4.20035124	      2.01908516	     -6.93223735	     -0.55788098	    -13.25206570	     32.61134594	     89.43345648	    -15.27998269	      4.31077496	     18.12748142	     -4.33960145	     14.48562957	     60.18605752	     89.44825936	    -21.31305785	     -4.39810745
      0.58000000	     11.86124820	      4.95448646	     -2.19913282	      0.41930439	      0.94818274	     -0.24433080	     11.93541107	     -4.55330978	      0.62748267	      5.63097511	      0.09827906	      1.28676808	      0.00000000	      0.00000000	    -28.81693023	      8.19084573	     -3.55292523	      8.34910731	      0.14571941	     14.91314087	      0.00000000	      0.00000000	    -27.64653758	     -3.86138282	      2.18499985	     -7.09293868	     -0.58571953	    -13.24789038	     31.92879641	     89.45169723	    -15.29354493	      4.41541645	     18.02094303	     -4.28042442	     14.53663430	     60.69732833	     89.45876501	    -21.31490568	     -4.56842905
      0.59000000	     11.83124343	      4.64362359	     -1.82982082	      0.43238009	      0.94748397	     -0.24418264	     12.04868822	     -4.31881964	     -0.41274154	      6.96814847	      0.12161713	      0.90327722	      0.00000000	      0.00000000	    -28.96075730	      7.54365453	     -3.89770479	      9.77010430	      0.17052049	     14.67294899	      0.00000000	      0.00000000	    -27.51148692	     -3.28456907	      1.98362987	     -7.12491403	     -0.71082583	    -12.84219536	     31.16106807	     89.43669535	    -15.28786455	      4.49654548	     17.67666804	     -4.24820496	     14.29579206	     61.11402025	     89.43847371	    -21.38707419	     -4.88013014
      0.60000000	     11.80340932	      4.19465624	     -1.40051513	      0.44572293	      0.94710828	     -0.24416442	     12.05858518	     -3.97333591	     -1.35372432	      8.39154356	      0.14646006	      0.45715674	      0.00000000	      0.00000000	    -29.05093373	      6.73726507	     -3.93864281	     11.29127494	      0.19706992	     14.12322989	      0.00000000	      0.00000000	    -27.38017363	     -2.52489000	      1.68470223	     -7.03008385	     -0.90142480	    -12.15687057	     30.22506443	     89.43770966	    -15.36992245	      4.62614123	     17.14913397	     -4.19526757	     13.86007536	     61.52663858	     89.43683090	    -21.52487584	     -5.27039573
      0.61000000	     11.88182620	      3.89443833	     -1.20013047	      0.45911709	      0.94698738	     -0.24372062	     11.98931683	     -3.75172306	     -1.98746282	      9.95774232	      0.17379539	     -0.08072002	      0.00000000	      0.00000000	    -29.15073960	      6.14884259	     -4.19979881	     12.96283318	      0.22624412	     13.16741209	      0.00000000	      0.00000000	    -27.30122641	     -2.04003937	      1.69298107	     -7.05270630	     -1.01521332	    -11.79702686	     29.51740549	     89.43687991	    -15.43569220	      4.77606942	     16.76054604	     -4.09398181	     13.67782214	     61.62505254	     89.43083855	    -21.59372308	     -5.42699151
      0.62000000	     11.95765262	      3.54936037	     -1.00645248	      0.47259932	      0.94709030	     -0.24337428	     11.88039385	     -3.48992220	     -2.36792510	     11.57252189	      0.20197861	     -0.58073405	      0.00000000	      0.00000000	    -29.11016145	      5.51785913	     -4.38494421	     14.87458205	      0.25961043	     11.95696015	      0.00000000	      0.00000000	    -27.24211350	     -1.50384748	      1.81430746	     -7.07699864	     -1.15434714	    -11.50042407	     28.85829137	     89.44593464	    -15.47407208	      4.94900822	     16.37686155	     -3.89447702	     13.49927371	     61.53664396	     89.43232248	    -21.65322589	     -5.51383451
      0.63000000	     12.15096037	      3.18431228	     -0.84163574	      0.48633270	      0.94756720	     -0.24287654	     11.58364458	     -3.20719862	     -2.96645705	     13.17181835	      0.22989160	     -1.03571652	      0.00000000	      0.00000000	    -29.06468706	      4.83291933	     -4.88703703	     17.02623874	      0.29716393	     10.47187900	      0.00000000	      0.00000000	    -27.24439562	     -0.96896280	      1.93012116	     -7.08208186	     -1.29493689	    -11.06577927	     28.25266013	     89.45132145	    -15.50021725	      5.16380730	     15.93244839	     -3.71363781	     13.30522526	     61.30958840	     89.43336157	    -21.71932942	     -5.59172634
      0.64000000	     12.48429304	      2.41910724	     -0.40461354	      0.50075445	      0.94869164	     -0.24267470	     10.80877823	     -2.53164922	     -4.24280148	     14.32599587	      0.25003580	     -1.66766107	      0.00000000	      0.00000000	    -29.07683259	      3.56519637	     -5.65256792	     19.38294451	      0.33829620	      8.70688997	      0.00000000	      0.00000000	    -27.30092535	      0.07760552	      1.31141405	     -6.66453997	     -1.66760357	     -9.18055660	     27.26813083	     89.44837242	    -15.95895271	      5.81213426	     14.88820121	     -3.68208460	     12.41382568	     61.34397911	     89.43833050	    -22.15211819	     -6.16753590
